# xmcd
#
# Track frame offsets:
#	150
#	15844
#	34234
#	52057
#	68829
#	84764
#	101311
#	118989
#	136624
#	153485
#	172499
#	190544
#	205591
#	222095
#	239246
#	254729
#	270823
#	288697
#	306712
#	320848
#
# Disc length: 4489 seconds
#
# Revision: 0
# Processed by: cddbd v1.5.2PL0 Copyright (c) Steve Scherf et al.
# Submitted via: EasyCDDAExtractor 10.0.2.1
#
DISCID=2a118714
DTITLE=Various Artist - the Rhythn of the night
DYEAR=2006
DGENRE=Pop
TTITLE0=Corona - the Rhythn of the night
TTITLE1=C&C Music Factory feat. - Gonna Make You Sweat (Everybody Dance Now)
TTITLE2=Dj Bobo - Freedom
TTITLE3=2 Unlimeted - the Real Thing
TTITLE4=DONS - Jack to the Sound of the Ubdergrounf
TTITLE5=Sash - Mysterious time
TTITLE6=E-type - Here I Go Again
TTITLE7=Masterboy - Anybody (Movin' On)
TTITLE8=Aqua - Roses Are Red
TTITLE9=MC Hammer - U can't touch this
TTITLE10=Whigfiels - Saturday Night
TTITLE11=Lolly - Mickey
TTITLE12=Crystal Waters - Gypsy Woman (She's Homeless)
TTITLE13=Scooter - How Much is the Fish?
TTITLE14=K-Klass - Rhythm is a mystery
TTITLE15=Technotronic - Pump up the Jam
TTITLE16=Inner City - Good life
TTITLE17=Army of Lovers - Sexual Revolution
TTITLE18=Milk Inc - La Vache (Regg and Arkin mix)
TTITLE19=Soul II Soul featuring Caron Wheeler - Keep on movin'
EXTD=
EXTT0=
EXTT1=
EXTT2=
EXTT3=
EXTT4=
EXTT5=
EXTT6=
EXTT7=
EXTT8=
EXTT9=
EXTT10=
EXTT11=
EXTT12=
EXTT13=
EXTT14=
EXTT15=
EXTT16=
EXTT17=
EXTT18=
EXTT19=
PLAYORDER=
